# xmcd
#
# Track frame offsets:
#	150
#	17257
#	35935
#	55322
#	70137
#	86970
#	102875
#	119945
#	137987
#	158067
#	173843
#	190432
#	209644
#	226478
#	241215
#
# Disc length: 3566 seconds
#
# Revision: 0
# Processed by: cddbd v1.5.2PL0 Copyright (c) Steve Scherf et al.
# Submitted via: audiograbber 1.83.01
#
DISCID=e00dec0f
DTITLE=Sound Choice - Country Hits - Vol. 150 SC8753
DYEAR=1900
DGENRE=Karaoke
TTITLE0=George Strait - Living and Living Well
TTITLE1=Mindy McCready - Maybe, Maybe Not
TTITLE2=Clint Black - Money Or Love
TTITLE3=Jamie O'Neal - Frantic
TTITLE4=Sawyer Brown - Circles
TTITLE5=Mark Chestnett - She Was
TTITLE6=Shannon Brown - Untangle My Heart
TTITLE7=Jeff Carson - Until We Fall Back In Love Again
TTITLE8=Shannon Lawrence - Goodbye On A Bad Day
TTITLE9=Brad Paisley - I'm Gonna Miss Her
TTITLE10=The Derailers - Bar Exam
TTITLE11=Sara Evans - I Keep Looking
TTITLE12=Brad Martin - Before I Knew Better
TTITLE13=Holly Wynnette - My Future Ex-Boyfriend
TTITLE14=Alan Jackson - When Love Comes Around
EXTD=
EXTT0=
EXTT1=
EXTT2=
EXTT3=
EXTT4=
EXTT5=
EXTT6=
EXTT7=
EXTT8=
EXTT9=
EXTT10=
EXTT11=
EXTT12=
EXTT13=
EXTT14=
PLAYORDER=
